<svg xmlns="http://www.w3.org/2000/svg" viewBox="0 0 100 100">
  <rect width="100" height="100" rx="18" fill="white"/>
  <g transform="translate(12,92) scale(0.031,-0.031)" fill="#4a8fc7" stroke="none">
    <path d="M1135 2544 c-117 -18 -131 -22 -230 -56 -183 -62 -329 -153 -472
-293 -151 -148 -259 -330 -321 -541 -34 -113 -40 -146 -48 -264 -3 -47 -12
-115 -20 -152 -7 -36 -17 -83 -20 -105 -3 -21 -8 -41 -9 -44 -2 -3 -7 -39 -10
-80 l-6 -74 30 85 c34 98 70 179 120 265 110 192 371 474 486 526 87 39 62
-11 -75 -152 -218 -224 -428 -555 -438 -690 -10 -139 88 -384 145 -362 8 3 32
41 53 84 71 146 240 359 284 359 25 0 20 -16 -23 -73 -100 -133 -242 -394
-260 -478 -37 -170 24 -255 187 -264 l65 -4 -36 24 c-38 27 -50 50 -52 105 -4
151 199 439 435 616 72 54 196 137 239 159 45 23 160 66 191 71 14 3 34 7 45
11 30 8 11 -7 -95 -72 -358 -222 -618 -501 -690 -742 l-22 -73 22 -35 c46 -74
197 -162 344 -201 50 -13 71 -15 73 -7 17 51 186 225 288 298 65 47 182 105
211 105 8 0 -6 -16 -33 -37 -133 -100 -256 -223 -288 -286 -22 -44 -23 -53
-11 -71 27 -42 53 -48 191 -42 483 19 847 225 1041 590 112 211 160 428 157
706 -2 138 -10 171 -47 188 -43 21 -356 17 -401 -4 -5 -3 -1 2 10 11 60 51
228 99 363 104 41 2 29 73 -34 197 -33 65 -56 76 -158 74 -164 -1 -253 -12
-393 -45 -339 -81 -637 -218 -896 -412 -54 -40 -100 -73 -102 -73 -3 0 -4 12
-3 28 5 66 119 190 263 286 219 146 492 254 800 318 148 30 391 33 477 4 52
-17 118 -66 118 -88 0 -5 4 -6 10 -3 14 9 5 135 -13 168 -38 72 -108 122 -212
153 -96 29 -339 26 -505 -6 -127 -24 -585 -158 -615 -180 -22 -16 -75 -29 -80
-19 -15 23 119 114 235 159 141 56 395 113 555 126 44 3 82 8 84 10 12 11 -83
89 -144 119 -149 72 -305 70 -609 -6 -65 -16 -123 -28 -130 -26 -18 6 71 48
189 88 l110 38 -120 -1 c-66 -1 -156 -7 -200 -14z"/>
  </g>
</svg>
